<svg id="visual" viewBox="0 0 960 540" width="960" height="540" xmlns="http://www.w3.org/2000/svg" xmlns:xlink="http://www.w3.org/1999/xlink" version="1.1"><path d="M0 109L14.5 103.7C29 98.3 58 87.7 87.2 76C116.3 64.3 145.7 51.7 174.8 53.3C204 55 233 71 262 71.8C291 72.7 320 58.3 349 58.3C378 58.3 407 72.7 436.2 81.7C465.3 90.7 494.7 94.3 523.8 88.2C553 82 582 66 611 68.7C640 71.3 669 92.7 698 96.2C727 99.7 756 85.3 785.2 80C814.3 74.7 843.7 78.3 872.8 73.8C902 69.3 931 56.7 945.5 50.3L960 44L960 0L945.5 0C931 0 902 0 872.8 0C843.7 0 814.3 0 785.2 0C756 0 727 0 698 0C669 0 640 0 611 0C582 0 553 0 523.8 0C494.7 0 465.3 0 436.2 0C407 0 378 0 349 0C320 0 291 0 262 0C233 0 204 0 174.8 0C145.7 0 116.3 0 87.2 0C58 0 29 0 14.5 0L0 0Z" fill="#a067ff"></path><path d="M0 147L14.5 140.7C29 134.3 58 121.7 87.2 115.3C116.3 109 145.7 109 174.8 113.5C204 118 233 127 262 128.8C291 130.7 320 125.3 349 129.8C378 134.3 407 148.7 436.2 160.3C465.3 172 494.7 181 523.8 167.5C553 154 582 118 611 114.3C640 110.7 669 139.3 698 143.8C727 148.3 756 128.7 785.2 128.7C814.3 128.7 843.7 148.3 872.8 145.7C902 143 931 118 945.5 105.5L960 93L960 42L945.5 48.3C931 54.7 902 67.3 872.8 71.8C843.7 76.3 814.3 72.7 785.2 78C756 83.3 727 97.7 698 94.2C669 90.7 640 69.3 611 66.7C582 64 553 80 523.8 86.2C494.7 92.3 465.3 88.7 436.2 79.7C407 70.7 378 56.3 349 56.3C320 56.3 291 70.7 262 69.8C233 69 204 53 174.8 51.3C145.7 49.7 116.3 62.3 87.2 74C58 85.7 29 96.3 14.5 101.7L0 107Z" fill="#8642ff"></path><path d="M0 239L14.5 254.2C29 269.3 58 299.7 87.2 315.8C116.3 332 145.7 334 174.8 340.3C204 346.7 233 357.3 262 361.8C291 366.3 320 364.7 349 361.2C378 357.7 407 352.3 436.2 342.3C465.3 332.3 494.7 317.7 523.8 318.5C553 319.3 582 335.7 611 344.7C640 353.7 669 355.3 698 336.5C727 317.7 756 278.3 785.2 277.5C814.3 276.7 843.7 314.3 872.8 330.5C902 346.7 931 341.3 945.5 338.7L960 336L960 91L945.5 103.5C931 116 902 141 872.8 143.7C843.7 146.3 814.3 126.7 785.2 126.7C756 126.7 727 146.3 698 141.8C669 137.3 640 108.7 611 112.3C582 116 553 152 523.8 165.5C494.7 179 465.3 170 436.2 158.3C407 146.7 378 132.3 349 127.8C320 123.3 291 128.7 262 126.8C233 125 204 116 174.8 111.5C145.7 107 116.3 107 87.2 113.3C58 119.7 29 132.3 14.5 138.7L0 145Z" fill="#6600ff"></path><path d="M0 406L14.5 412.3C29 418.7 58 431.3 87.2 438.5C116.3 445.7 145.7 447.3 174.8 447.3C204 447.3 233 445.7 262 450.2C291 454.7 320 465.3 349 461.7C378 458 407 440 436.2 440C465.3 440 494.7 458 523.8 461.7C553 465.3 582 454.7 611 456.5C640 458.3 669 472.7 698 474.5C727 476.3 756 465.7 785.2 454C814.3 442.3 843.7 429.7 872.8 427.8C902 426 931 435 945.5 439.5L960 444L960 334L945.5 336.7C931 339.3 902 344.7 872.8 328.5C843.7 312.3 814.3 274.7 785.2 275.5C756 276.3 727 315.7 698 334.5C669 353.3 640 351.7 611 342.7C582 333.7 553 317.3 523.8 316.5C494.7 315.7 465.3 330.3 436.2 340.3C407 350.3 378 355.7 349 359.2C320 362.7 291 364.3 262 359.8C233 355.3 204 344.7 174.8 338.3C145.7 332 116.3 330 87.2 313.8C58 297.7 29 267.3 14.5 252.2L0 237Z" fill="#5802dc"></path><path d="M0 541L14.5 541C29 541 58 541 87.2 541C116.3 541 145.7 541 174.8 541C204 541 233 541 262 541C291 541 320 541 349 541C378 541 407 541 436.2 541C465.3 541 494.7 541 523.8 541C553 541 582 541 611 541C640 541 669 541 698 541C727 541 756 541 785.2 541C814.3 541 843.7 541 872.8 541C902 541 931 541 945.5 541L960 541L960 442L945.5 437.5C931 433 902 424 872.8 425.8C843.7 427.7 814.3 440.3 785.2 452C756 463.7 727 474.3 698 472.5C669 470.7 640 456.3 611 454.5C582 452.7 553 463.3 523.8 459.7C494.7 456 465.3 438 436.2 438C407 438 378 456 349 459.7C320 463.3 291 452.7 262 448.2C233 443.7 204 445.3 174.8 445.3C145.7 445.3 116.3 443.7 87.2 436.5C58 429.3 29 416.7 14.5 410.3L0 404Z" fill="#4b03ba"></path></svg>